<svg width="52" height="64" viewBox="0 0 52 64" fill="none" xmlns="http://www.w3.org/2000/svg">
<path d="M37.6667 8.66665H43.5C45.0471 8.66665 46.5308 9.28123 47.6248 10.3752C48.7187 11.4692 49.3333 12.9529 49.3333 14.5V55.3333C49.3333 56.8804 48.7187 58.3641 47.6248 59.4581C46.5308 60.5521 45.0471 61.1666 43.5 61.1666H8.5C6.9529 61.1666 5.46917 60.5521 4.37521 59.4581C3.28125 58.3641 2.66666 56.8804 2.66666 55.3333V14.5C2.66666 12.9529 3.28125 11.4692 4.37521 10.3752C5.46917 9.28123 6.9529 8.66665 8.5 8.66665H14.3333M17.25 2.83331H34.75C36.3608 2.83331 37.6667 4.13915 37.6667 5.74998V11.5833C37.6667 13.1941 36.3608 14.5 34.75 14.5H17.25C15.6392 14.5 14.3333 13.1941 14.3333 11.5833V5.74998C14.3333 4.13915 15.6392 2.83331 17.25 2.83331Z" stroke="#E8C547" stroke-width="4" stroke-linecap="round" stroke-linejoin="round"/>
</svg>
