<svg width="221" height="163" viewBox="0 0 221 163" fill="none" xmlns="http://www.w3.org/2000/svg">
<path d="M0 0V163H118V162H117L116 161H115L114 160L113 159V158L112 157L111 156V155L110 154V153L109 152L108 151V150L107 149V148L106 147V146L105 145L104 144V143L103 142V141L102 140L101 139V138L100 137V136L99 135V134L98 133L97 132V131L96 130V129L95 128V127L94 126L93 125V124L92 123V122L91 121L90 120H38H37L36 119L35 118L33 116L32 115L31 114V113L30 112V111L29 110L28 109V108L27 107V106L26 105L25 104V103L24 102V101L23 100L22 99V98L21 97V96L20 95V94L19 93L18 92V91L17 90V89L16 88V87L15 86L14 85V84L13 83V82L12 81L11 80V79L10 78V77L9 76V75L8 74L7 73V72L6 71V70L5 69L4 68V67L3 66V65L2 64V63V62V58V57V56L3 55V54L4 53L5 52V51L6 50V49L7 48V47L8 46L9 45V44L10 43V42L11 41L12 40V39L13 38V37L14 36V35L15 34L16 33V32L17 31V30L18 29L19 28V27L20 26V25L21 24V23L22 22L23 21V20L24 19V18L25 17L26 16V15L27 14V13L28 12V11L29 10L30 9V8L31 7V6L32 5L33 4L34 3L35 2L36 1H37V0H0Z" fill="#FEFEFE"/>
<path d="M103 0V1H104L105 2L106 3L107 4L108 5V6L109 7L110 8V9L111 10V11L112 12L113 13V14L114 15V16L115 17V18L116 19L117 20V21L118 22V23L119 24L120 25V26L121 27V28L122 29V30L123 31L124 32V33L125 34V35L126 36V37L127 38L128 39V40L129 41V42H130L181 43H183L184 44H185L186 45L187 46L188 47L189 48V49L190 50V51L191 52V53L192 54L193 55V56L194 57V58L195 59L196 60V61L197 62V63L198 64V65L199 66L200 67V68L201 69V70L202 71L203 72V73L204 74V75L205 76V77L206 78L207 79V80L208 81V82L209 83L210 84V85L211 86V87L212 88V89L213 90L214 91V92L215 93V94L216 95L217 96V97L218 98V99L219 101V105L218 106V107L217 108V109L216 110V111L215 112L214 113V114L213 115V116L212 117V118L211 119L210 120V121L209 122V123L208 124L207 125V126L206 127V128L205 129V130L204 131L203 132V133L202 134V135L201 136L200 137V138L199 139V140L198 141V142L197 143L196 144V145L195 146V147L194 148V149L193 150L192 151V152L191 153V154L190 155L189 156V157L188 158L187 159L186 160L185 161L184 162H183V163H221V0H103Z" fill="#FEFEFE"/>
<path d="M39 0L38 1H37H36L35 2L34 3L33 4L32 5V6L31 7L30 8V9L29 10V11L28 12V13L27 14L26 15V16L25 17V18L24 19L23 20V21L22 22V23L21 24V25L20 26L19 27V28L18 29V30L17 31L16 32V33L15 34V35L14 36V37L13 38L12 39V40L11 41V42L10 43L9 44V45L8 46V47L7 48V49L6 50L5 51V52L4 53V54L3 55V56L2 57V58V62V63L3 64V65L4 66V67L5 68V69L6 70V71L7 72L8 73V74L9 75V76L10 77L11 78V79L12 80V81L13 82V83L14 84L15 85V86L16 87V88L17 89V90L18 91L19 92V93L20 94V95L21 96L22 97V98L23 99V100L24 101V102L25 103L26 104V105L27 106V107L28 108L29 109V110L30 111V112L31 113V114L32 115L33 116L35 118L36 119H37L38 120H90L91 121L92 122V123L93 124L94 125V126L95 127V128L96 129V130L97 131L98 132V133L99 134V135L100 136L101 137V138L102 139V140L103 141V142L104 143L105 144V145L106 146V147L107 148V149L108 150L109 151V152L110 153V154L111 155L112 156V157L113 158V159L114 160L115 161H116L117 162H118H182H183H184L185 161L186 160L187 159L188 158L189 157V156L190 155V154L191 153L192 152V151L193 150V149L194 148V147L195 146L196 145V144L197 143V142L198 141L199 140V139L200 138V137L201 136V135L202 134L203 133V132L204 131V130L205 129V128L206 127L207 126V125L208 124V123L209 122L210 121V120L211 119V118L212 117V116L213 115L214 114V113L215 112V111L216 110L217 109V108L218 107V106V105V101V99L217 98V97L216 96V95L215 94V93L214 92L213 91V90L212 89V88L211 87V86L210 85L209 84V83L208 82V81L207 80L206 79V78L205 77V76L204 75V74L203 73L202 72V71L201 70V69L200 68L199 67V66L198 65V64L197 63V62L196 61L195 60V59L194 58V57L193 56L192 55V54L191 53V52L190 51V50L189 49L188 48V47L187 46L186 45L185 44H184L183 43H181H130L129 42V41L128 40L127 39V38L126 37V36L125 35V34L124 33L123 32V31L122 30V29L121 28L120 27V26L119 25V24L118 23V22L117 21L116 20V19L115 18V17L114 16V15L113 14L112 13V12L111 11V10L110 9L109 8V7L108 6V5L107 4L106 3L105 2L104 1H103H102L101 0H39Z" fill="#010101"/>
<path d="M38 0H37V1H38V0Z" fill="#9D9D9D"/>
<path d="M103 0H102V1H103V0Z" fill="#9D9D9D"/>
<path d="M130 42V43H181L130 42Z" fill="#9D9D9D"/>
<path d="M3 64H2V65H3V64Z" fill="#9D9D9D"/>
<path d="M4 66H3V67H4V66Z" fill="#9D9D9D"/>
<path d="M5 68H4V69H5V68Z" fill="#9D9D9D"/>
<path d="M8 73H7V74H8V73Z" fill="#9D9D9D"/>
<path d="M11 78H10V79H11V78Z" fill="#9D9D9D"/>
<path d="M12 80H11V81H12V80Z" fill="#9D9D9D"/>
<path d="M15 85H14V86H15V85Z" fill="#9D9D9D"/>
<path d="M19 92H18V93H19V92Z" fill="#9D9D9D"/>
<path d="M22 97H21V98H22V97Z" fill="#9D9D9D"/>
<path d="M23 99H22V100H23V99Z" fill="#9D9D9D"/>
<path d="M218 99V101H219L218 99Z" fill="#9D9D9D"/>
<path d="M26 104H25V105H26V104Z" fill="#9D9D9D"/>
<path d="M219 105H218V106H219V105Z" fill="#9D9D9D"/>
<path d="M29 109H28V110H29V109Z" fill="#9D9D9D"/>
<path d="M216 111H215V112H216V111Z" fill="#9D9D9D"/>
<path d="M213 116H212V117H213V116Z" fill="#9D9D9D"/>
<path d="M212 118H211V119H212V118Z" fill="#9D9D9D"/>
<path d="M37 119H36V120H37V119Z" fill="#9D9D9D"/>
<path d="M209 123H208V124H209V123Z" fill="#9D9D9D"/>
<path d="M94 125H93V126H94V125Z" fill="#9D9D9D"/>
<path d="M206 128H205V129H206V128Z" fill="#9D9D9D"/>
<path d="M205 130H204V131H205V130Z" fill="#9D9D9D"/>
<path d="M98 132H97V133H98V132Z" fill="#9D9D9D"/>
<path d="M202 135H201V136H202V135Z" fill="#9D9D9D"/>
<path d="M101 137H100V138H101V137Z" fill="#9D9D9D"/>
<path d="M102 139H101V140H102V139Z" fill="#9D9D9D"/>
<path d="M198 142H197V143H198V142Z" fill="#9D9D9D"/>
<path d="M105 144H104V145H105V144Z" fill="#9D9D9D"/>
<path d="M195 147H194V148H195V147Z" fill="#9D9D9D"/>
<path d="M194 149H193V150H194V149Z" fill="#9D9D9D"/>
<path d="M109 151H108V152H109V151Z" fill="#9D9D9D"/>
<path d="M191 154H190V155H191V154Z" fill="#9D9D9D"/>
<path d="M112 156H111V157H112V156Z" fill="#9D9D9D"/>
<path d="M183 162H182V163H183V162Z" fill="#9D9D9D"/>
<path d="M39 0H38V1H39V0Z" fill="#474747"/>
<path d="M102 0H101V1H102V0Z" fill="#474747"/>
<path d="M32 6H31V7H32V6Z" fill="#474747"/>
<path d="M110 8H109V9H110V8Z" fill="#474747"/>
<path d="M29 11H28V12H29V11Z" fill="#474747"/>
<path d="M28 13H27V14H28V13Z" fill="#474747"/>
<path d="M113 13H112V14H113V13Z" fill="#474747"/>
<path d="M25 18H24V19H25V18Z" fill="#474747"/>
<path d="M117 20H116V21H117V20Z" fill="#474747"/>
<path d="M22 23H21V24H22V23Z" fill="#474747"/>
<path d="M21 25H20V26H21V25Z" fill="#474747"/>
<path d="M120 25H119V26H120V25Z" fill="#474747"/>
<path d="M121 27H120V28H121V27Z" fill="#474747"/>
<path d="M18 30H17V31H18V30Z" fill="#474747"/>
<path d="M124 32H123V33H124V32Z" fill="#474747"/>
<path d="M15 35H14V36H15V35Z" fill="#474747"/>
<path d="M14 37H13V38H14V37Z" fill="#474747"/>
<path d="M128 39H127V40H128V39Z" fill="#474747"/>
<path d="M11 42H10V43H11V42Z" fill="#474747"/>
<path d="M130 42H129V43H130V42Z" fill="#474747"/>
<path d="M8 47H7V48H8V47Z" fill="#474747"/>
<path d="M189 48H188V49H189V48Z" fill="#474747"/>
<path d="M7 49H6V50H7V49Z" fill="#474747"/>
<path d="M4 54H3V55H4V54Z" fill="#474747"/>
<path d="M193 55H192V56H193V55Z" fill="#474747"/>
<path d="M3 56H2V57H3V56Z" fill="#474747"/>
<path d="M196 60H195V61H196V60Z" fill="#474747"/>
<path d="M200 67H199V68H200V67Z" fill="#474747"/>
<path d="M203 72H202V73H203V72Z" fill="#474747"/>
<path d="M207 79H206V80H207V79Z" fill="#474747"/>
<path d="M210 84H209V85H210V84Z" fill="#474747"/>
<path d="M214 91H213V92H214V91Z" fill="#474747"/>
<path d="M217 96H216V97H217V96Z" fill="#474747"/>
<path d="M218 98H217V99H218V98Z" fill="#474747"/>
<path d="M218 101V105H219V101H218Z" fill="#474747"/>
<path d="M118 162V163H182V162H118Z" fill="#474747"/>
<path d="M90 9L40 10L39 11L38 12V13L37 14V15L36 16V17L35 18L34 19V20L33 21V22L32 23V24L31 25L30 26V27L29 28V29L28 30L27 31V32L26 33V34L25 35L24 36V37V39L25 40L26 41L27 42L28 43L29 44L30 45L31 46L32 47L33 48L34 49L35 50L36 51L37 52L38 53L39 54L40 55L41 56L42 57H44L45 56L46 55L47 54L48 53L59 41L60 40L61 39L62 38L63 37L64 36L65 35L66 34L67 33L68 32L69 31L70 30L71 29L72 28L73 27L74 26L75 25L76 24L77 23L78 22L79 21L80 20L81 19L82 18L83 17L84 16L85 15L86 14L87 13L88 12L89 11L90 10V9Z" fill="#FEFEFE"/>
<path d="M101 14L100 15L99 16L98 17L97 18L96 19L95 20L94 21L93 22L92 23L91 24L90 25L89 26L88 27L87 28L86 29L85 30L84 31L83 32L82 33L81 34L80 35L79 36L78 37L77 38L76 39L75 40L74 41L73 42L72 43L71 44L70 45L69 46L68 47L67 48L66 49L65 50L64 51L63 52L62 53L61 54L60 55L59 56L58 57L57 58L56 59L55 60L54 61L53 62L52 63L51 64L50 65L49 66L48 67L47 68L46 69L45 70L44 71H42L41 70L40 69L39 68L38 67L37 66L36 65L35 64L34 63L33 62L32 61L31 60L30 59L29 58L28 57L27 56L26 55L25 54L24 53L23 52L22 51L21 50L20 49L19 48H18L17 49L16 50V51L15 52V53L14 54L13 55V56L12 57V58L11 59V61L12 62V63L13 64V65L14 66L15 67V68L16 69V70L17 71V72L18 73L19 74V75L20 76V77L21 78L22 79V80L23 81V82L24 83V84L25 85L26 86V87L27 88V89L28 90L29 91V92L30 93V94L31 95V96L32 97L33 98V99L34 100V101L35 102V103L36 104L37 105V106L38 107V108L39 109V110L40 111L85 110L84 109L83 108V107L82 106V104V101V100L83 99V98L84 97V96L85 95V94L86 93L87 92V91L88 90V89L89 88V87L90 86L91 85V84L92 83V82L93 81L94 80V79L95 78V77L96 76V75L97 74L98 73V72L99 71V70L100 69L101 68V67L102 66V65L103 64V63L104 62L105 61V60L106 59V58L107 57L108 56V55L109 54V53L110 52V51L111 50L112 49V48L113 47L114 46L115 45L116 44L117 43H118L119 42L118 41V40L117 39L116 38V37L115 36V35L114 34V33L113 32L112 31V30L111 29V28L110 27L109 26V25L108 24V23L107 22V21L106 20L105 19V18L104 17V16L103 15L102 14H101Z" fill="#FEFEFE"/>
<path d="M121 52L120 53L119 54V55L118 56V57L117 58L116 59V60L115 61V62L114 63V64L113 65L112 66V67L111 68V69L110 70L109 71V72L108 73V74L107 75V76L106 77L105 78V79L104 80V81L103 82L102 83V84L101 85V86L100 87V88L99 89L98 90V91L97 92V93L96 94L95 95V96L94 97V98L93 99V100L92 101V102V104V105L93 106V107L94 108L95 109V110L96 111L100 110L101 109V108L102 107L103 106V105L104 104V103L105 102V101L106 100L107 99V98L108 97V96L109 95L110 94V93L111 92V91L112 90V89L113 88L114 87V86L115 85V84L116 83L117 82V81L118 80V79L119 78V77L120 76L121 75V74L122 73V72L123 71L124 70V69L125 68V67L126 66V65L127 64L128 63V62L129 61V59L128 58V57L127 56L126 55V54L125 53V52H121Z" fill="#FEFEFE"/>
<path d="M136 52V53V54L137 55L138 56V57V59V61V63V64L137 65L136 66V67L135 68V69L134 70V71L133 72L132 73V74V77V78V79L133 80V81V82L134 83V84L135 85V86L136 87V88L137 89L138 90L139 91L142 94L143 95L144 96L145 97H146L147 98H148L149 99H150L151 100H152H153L154 101H155H157L160 102H165L168 101H169H170L171 100H173L174 99H175H176L177 98H178L179 97L180 96H181L182 95L183 94L184 93L185 92L186 91L187 90L188 89V88L189 87V86L190 85V84L191 83V82L192 81V80V79L193 77V76V74L192 73V72L191 71V70L190 69V68L189 67L188 66V65L187 64V63L186 62L185 61V60L184 59V58L183 57V56L182 55L181 54V53L180 52H136Z" fill="#FEFEFE"/>
<path d="M199 86V87L198 88V89L197 90V91L196 92V93L195 94L194 95L193 96L192 97L189 100L188 101L187 102L186 103L185 104H184L183 105L182 106H181L180 107H179L178 108H177H176L174 109L173 110H171H153H152L151 109H150H149L148 108H147L146 107H145L144 106H143L142 105H141L140 104L139 103H138L137 102L136 101L135 100L134 99L133 98L132 97L131 96L130 95V94L129 93L128 92V91L127 90L126 89V88L125 87H124V88L123 89V90L122 91L121 92V93L120 94V95L119 96L118 97V98L117 99V100L116 101V102L115 103L114 104V105L113 106V107L112 108L111 109V110L110 111V112L109 113V114L108 115L107 116L106 117L105 118L104 119H103L102 120V121V122L103 123V124L104 125L105 126V127L106 128V129L107 130V131L108 132L109 133V134L110 135V136L111 137L112 138V139L113 140V141L114 142V143L115 144L116 145V146L117 147V148L118 149L119 150V151L120 152V153H121H180H181V152L182 151V150L183 149V148L184 147L185 146V145L186 144V143L187 142V141L188 140L189 139V138L190 137V136L191 135L192 134V133L193 132V131L194 130V129L195 128L196 127V126L197 125V124L198 123L199 122V121L200 120V119L201 118V117L202 116L203 115V114L204 113V112L205 111L206 110V109L207 108V107L208 106V105L209 104V103V102V101L208 100V99L207 98L206 97V96L205 95V94L204 93V92L203 91L202 90V89L201 88V87L200 86H199Z" fill="#FEFEFE"/>
<path fill-rule="evenodd" clip-rule="evenodd" d="M35 1H36V2H35V1ZM104 1H105V2H104V1ZM107 4H108V5H107V4ZM31 5H32V6H31V5ZM30 7H31V8H30V7ZM109 7H110V8H109V7ZM90 9H91V10H90V9ZM110 9H111V10H110V9ZM28 10H29V11H28V10ZM39 10H40V11H39V10ZM27 12H28V13H27V12ZM112 12H113V13H112V12ZM101 13H102V14H101V13ZM26 14H27V15H26V14ZM100 14H101V15H100V14ZM102 14H103V15H102V14ZM113 14H114V15H113V14ZM36 15H37V16H36V15ZM99 15H100V16H99V15ZM98 16H99V17H98V16ZM114 16H115V17H114V16ZM24 17H25V18H24V17ZM35 17H36V18H35V17ZM97 17H98V18H97V17ZM104 17H105V18H104V17ZM96 18H97V19H96V18ZM23 19H24V20H23V19ZM95 19H96V20H95V19ZM105 19H106V20H105V19ZM116 19H117V20H116V19ZM33 20H34V21H33V20ZM94 20H95V21H94V20ZM93 21H94V22H93V21ZM117 21H118V22H117V21ZM21 22H22V23H21V22ZM32 22H33V23H32V22ZM92 22H93V23H92V22ZM91 23H92V24H91V23ZM20 24H21V25H20V24ZM31 24H32V25H31V24ZM90 24H91V25H90V24ZM108 24H109V25H108V24ZM119 24H120V25H119V24ZM89 25H90V26H89V25ZM88 26H89V27H88V26ZM109 26H110V27H109V26ZM120 26H121V27H120V26ZM29 27H30V28H29V27ZM87 27H88V28H87V27ZM86 28H87V29H86V28ZM121 28H122V29H121V28ZM17 29H18V30H17V29ZM28 29H29V30H28V29ZM85 29H86V30H85V29ZM111 29H112V30H111V29ZM84 30H85V31H84V30ZM16 31H17V32H16V31ZM83 31H84V32H83V31ZM112 31H113V32H112V31ZM123 31H124V32H123V31ZM26 32H27V33H26V32ZM82 32H83V33H82V32ZM81 33H82V34H81V33ZM124 33H125V34H124V33ZM14 34H15V35H14V34ZM25 34H26V35H25V34ZM80 34H81V35H80V34ZM79 35H80V36H79V35ZM13 36H14V37H13V36ZM78 36H79V37H78V36ZM115 36H116V37H115V36ZM77 37H78V38H77V37ZM76 38H77V39H76V38ZM116 38H117V39H116V38ZM127 38H128V39H127V38ZM75 39H76V40H75V39ZM74 40H75V41H74V40ZM128 40H129V41H128V40ZM10 41H11V42H10V41ZM73 41H74V42H73V41ZM118 41H119V42H118V41ZM72 42H73V43H72V42ZM9 43H10V44H9V43ZM71 43H72V44H71V43ZM70 44H71V45H70V44ZM185 44H186V45H185V44ZM69 45H70V46H69V45ZM7 46H8V47H7V46ZM68 46H69V47H68V46ZM187 46H188V47H187V46ZM67 47H68V48H67V47ZM188 47H189V48H188V47ZM6 48H7V49H6V48ZM17 48H18V49H17V48ZM66 48H67V49H66V48ZM65 49H66V50H65V49ZM189 49H190V50H189V49ZM5 50H6V51H5V50ZM64 50H65V51H64V50ZM15 51H16V52H15V51ZM63 51H64V52H63V51ZM62 52H63V53H62V52ZM120 52H121V53H120V52ZM135 52H136V53H135V52ZM180 52H181V53H180V52ZM3 53H4V54H3V53ZM14 53H15V54H14V53ZM61 53H62V54H61V53ZM125 53H126V54H125V53ZM60 54H61V55H60V54ZM181 54H182V55H181V54ZM192 54H193V55H192V54ZM2 55H3V56H2V55ZM59 55H60V56H59V55ZM118 55H119V56H118V55ZM126 55H127V56H126V55ZM58 56H59V57H58V56ZM193 56H194V57H193V56ZM117 57H118V58H117V57ZM183 57H184V58H183V57ZM11 58H12V59H11V58ZM184 59H185V60H184V59ZM195 59H196V60H195V59ZM185 61H186V62H185V61ZM196 61H197V62H196V61ZM114 62H115V63H114V62ZM113 64H114V65H113V64ZM137 64H138V65H137V64ZM187 64H188V65H187V64ZM188 66H189V67H188V66ZM199 66H200V67H199V66ZM111 67H112V68H111V67ZM200 68H201V69H200V68ZM110 69H111V70H110V69ZM134 69H135V70H134V69ZM190 69H191V70H190V69ZM6 71H7V72H6V71ZM133 71H134V72H133V71ZM191 71H192V72H191V71ZM202 71H203V72H202V71ZM192 73H193V74H192V73ZM203 73H204V74H203V73ZM107 74H108V75H107V74ZM131 77L132 74V77H131ZM9 76H10V77H9V76ZM106 76H107V77H106V76ZM192 79L193 77V79H192ZM206 78H207V79H206V78ZM104 79H105V80H104V79ZM207 80H208V81H207V80ZM103 81H104V82H103V81ZM13 83H14V84H13V83ZM209 83H210V84H209V83ZM210 85H211V86H210V85ZM100 86H101V87H100V86ZM124 86H125V87H124V86ZM125 87H126V88H125V87ZM99 88H100V89H99V88ZM123 88H124V89H123V88ZM201 88H202V89H201V88ZM126 89H127V90H126V89ZM17 90H18V91H17V90ZM122 90H123V91H122V90ZM202 90H203V91H202V90ZM213 90H214V91H213V90ZM97 91H98V92H97V91ZM196 91H197V92H196V91ZM128 92H129V93H128V92ZM214 92H215V93H214V92ZM96 93H97V94H96V93ZM120 93H121V94H120V93ZM195 93H196V94H195V93ZM194 94H195V95H194V94ZM20 95H21V96H20V95ZM119 95H120V96H119V95ZM130 95H131V96H130V95ZM205 95H206V96H205V95ZM216 95H217V96H216V95ZM131 96H132V97H131V96ZM206 97H207V98H206V97ZM217 97H218V98H217V97ZM93 98H94V99H93V98ZM92 100H93V101H92V100ZM116 100H117V101H116V100ZM208 100H209V101H208V100ZM136 101H137V102H136V101ZM157 102V101L160 102H157ZM165 102L168 101V102H165ZM24 102H25V103H24V102ZM92 104L91 102H92V104ZM115 102H116V103H115V102ZM137 102H138V103H137V102ZM209 102H210V103H209V102ZM185 103H186V104H185V103ZM140 104H141V105H140V104ZM113 105H114V106H113V105ZM182 105H183V106H182V105ZM82 106H83V107H82V106ZM180 106H181V107H180V106ZM27 107H28V108H27V107ZM112 107H113V108H112V107ZM178 107H179V108H178V107ZM217 107H218V108H217V107ZM83 108H84V109H83V108ZM148 108H149V109H148V108ZM151 109H152V110H151V109ZM173 109H174V110H173V109ZM216 109H217V110H216V109ZM109 112H110V113H109V112ZM31 114H32V115H31V114ZM108 114H109V115H108V114ZM213 114H214V115H213V114ZM90 120H91V121H90V120ZM101 120H102V121H101V120ZM209 121H210V122H209V121ZM92 123H93V124H92V123ZM96 130H97V131H96V130ZM202 133H203V134H202V133ZM198 140H199V141H198V140ZM103 142H104V143H103V142ZM195 145H196V146H195V145ZM107 149H108V150H107V149ZM191 152H192V153H191V152ZM121 154V153H180V154H121ZM110 154H111V155H110V154ZM113 159H114V160H113V159ZM114 160H115V161H114V160ZM184 161H185V162H184V161Z" fill="#9D9D9D"/>
<path fill-rule="evenodd" clip-rule="evenodd" d="M34 2H35V3H34V2ZM105 2H106V3H105V2ZM33 3H34V4H33V3ZM106 3H107V4H106V3ZM32 4H33V5H32V4ZM108 6H109V7H108V6ZM29 9H30V10H29V9ZM38 11H39V12H38V11ZM111 11H112V12H111V11ZM37 13H38V14H37V13ZM102 13H103V14H102V13ZM103 15H104V16H103V15ZM25 16H26V17H25V16ZM35 16H36V17H35V16ZM34 18H35V19H34V18ZM105 18H106V19H105V18ZM115 18H116V19H115V18ZM106 20H107V21H106V20ZM22 21H23V22H22V21ZM107 22H108V23H107V22ZM31 23H32V24H31V23ZM118 23H119V24H118V23ZM30 25H31V26H30V25ZM109 25H110V26H109V25ZM19 26H20V27H19V26ZM110 27H111V28H110V27ZM18 28H19V29H18V28ZM28 28H29V29H28V28ZM27 30H28V31H27V30ZM112 30H113V31H112V30ZM122 30H123V31H122V30ZM113 32H114V33H113V32ZM15 33H16V34H15V33ZM25 33H26V34H25V33ZM114 34H115V35H114V34ZM24 35H25V36H24V35ZM125 35H126V36H125V35ZM116 37H117V38H116V37ZM126 37H127V38H126V37ZM12 38H13V39H12V38ZM117 39H118V40H117V39ZM11 40H12V41H11V40ZM117 43H118V44H117V43ZM183 43H184V44H183V43ZM8 45H9V46H8V45ZM186 45H187V46H186V45ZM19 48H20V49H19V48ZM16 49H17V50H16V49ZM20 49H21V50H20V49ZM21 50H22V51H21V50ZM22 51H23V52H22V51ZM110 51H111V52H110V51ZM135 52H180H136H135ZM190 51H191V52H190V51ZM4 52H5V53H4V52ZM14 52H15V53H14V52ZM23 52H24V53H23V52ZM24 53H25V54H24V53ZM109 53H110V54H109V53ZM119 53H120V54H119V53ZM181 53H182V54H181V53ZM191 53H192V54H191V53ZM13 54H14V55H13V54ZM25 54H26V55H25V54ZM126 54H127V55H126V54ZM26 55H27V56H26V55ZM182 55H183V56H182V55ZM12 56H13V57H12V56ZM27 56H28V57H27V56ZM117 56H118V57H117V56ZM127 56H128V57H127V56ZM137 56H138V57H137V56ZM11 57H12V58H11V57ZM28 57H29V58H28V57ZM57 57H58V58H57V57ZM29 58H30V59H29V58ZM56 58H57V59H56V58ZM106 58H107V59H106V58ZM116 58H117V59H116V58ZM128 58H129V59H128V58ZM184 58H185V59H184V58ZM194 58H195V59H194V58ZM30 59H31V60H30V59ZM55 59H56V60H55V59ZM31 60H32V61H31V60ZM54 60H55V61H54V60ZM115 60H116V61H115V60ZM185 60H186V61H185V60ZM32 61H33V62H32V61ZM53 61H54V62H53V61ZM11 62H12V63H11V62ZM33 62H34V63H33V62ZM52 62H53V63H52V62ZM186 62H187V63H186V62ZM2 63H3V64H2V63ZM34 63H35V64H34V63ZM51 63H52V64H51V63ZM103 63H104V64H103V63ZM113 63H114V64H113V63ZM137 63H138V64H137V63ZM197 63H198V64H197V63ZM35 64H36V65H35V64ZM50 64H51V65H50V64ZM3 65H4V66H3V65ZM36 65H37V66H36V65ZM49 65H50V66H49V65ZM102 65H103V66H102V65ZM112 65H113V66H112V65ZM126 65H127V66H126V65ZM136 65H137V66H136V65ZM188 65H189V66H188V65ZM198 65H199V66H198V65ZM37 66H38V67H37V66ZM48 66H49V67H48V66ZM4 67H5V68H4V67ZM14 67H15V68H14V67ZM38 67H39V68H38V67ZM47 67H48V68H47V67ZM135 67H136V68H135V67ZM189 67H190V68H189V67ZM39 68H40V69H39V68ZM46 68H47V69H46V68ZM110 68H111V69H110V68ZM5 69H6V70H5V69ZM15 69H16V70H15V69ZM40 69H41V70H40V69ZM45 69H46V70H45V69ZM41 70H42V71H41V70ZM44 70H45V71H44V70ZM99 70H100V71H99V70ZM109 70H110V71H109V70ZM133 70H134V71H133V70ZM191 70H192V71H191V70ZM201 70H202V71H201V70ZM7 72H8V73H7V72ZM108 72H109V73H108V72ZM122 72H123V73H122V72ZM132 72H133V73H132V72ZM192 72H193V73H192V72ZM107 73H108V74H107V73ZM8 74H9V75H8V74ZM18 74H19V75H18V74ZM96 75H97V76H96V75ZM106 75H107V76H106V75ZM204 75H205V76H204V75ZM10 77H11V78H10V77ZM95 77H96V78H95V77ZM105 77H106V78H105V77ZM119 77H120V78H119V77ZM131 77H132V78H131V77ZM205 77H206V78H205V77ZM11 79H12V80H11V79ZM21 79H22V80H21V79ZM192 79H193V80H192V79ZM103 80H104V81H103V80ZM132 80H133V81H132V80ZM12 81H13V82H12V81ZM22 81H23V82H22V81ZM92 82H93V83H92V82ZM102 82H103V83H102V82ZM191 82H192V83H191V82ZM208 82H209V83H208V82ZM133 83H134V84H133V83ZM14 84H15V85H14V84ZM101 84H102V85H101V84ZM115 84H116V85H115V84ZM190 84H191V85H190V84ZM134 85H135V86H134V85ZM199 85H200V86H199V85ZM15 86H16V87H15V86ZM25 86H26V87H25V86ZM125 86H126V87H125V86ZM189 86H190V87H189V86ZM200 86H201V87H200V86ZM89 87H90V88H89V87ZM99 87H100V88H99V87ZM198 87H199V88H198V87ZM211 87H212V88H211V87ZM16 88H17V89H16V88ZM126 88H127V89H126V88ZM88 89H89V90H88V89ZM98 89H99V90H98V89ZM112 89H113V90H112V89ZM122 89H123V90H122V89ZM197 89H198V90H197V89ZM202 89H203V90H202V89ZM212 89H213V90H212V89ZM127 90H128V91H127V90ZM18 91H19V92H18V91ZM28 91H29V92H28V91ZM121 91H122V92H121V91ZM203 91H204V92H203V91ZM96 92H97V93H96V92ZM195 92H196V93H195V92ZM19 93H20V94H19V93ZM29 93H30V94H29V93ZM129 93H130V94H129V93ZM204 93H205V94H204V93ZM85 94H86V95H85V94ZM95 94H96V95H95V94ZM119 94H120V95H119V94ZM215 94H216V95H215V94ZM193 95H194V96H193V95ZM21 96H22V97H21V96ZM94 96H95V97H94V96ZM108 96H109V97H108V96ZM118 96H119V97H118V96ZM192 96H193V97H192V96ZM206 96H207V97H206V96ZM132 97H133V98H132V97ZM22 98H23V99H22V98ZM32 98H33V99H32V98ZM117 98H118V99H117V98ZM133 98H134V99H133V98ZM207 98H208V99H207V98ZM92 99H93V100H92V99ZM134 99H135V100H134V99ZM174 99H175V100H174V99ZM23 100H24V101H23V100ZM82 100H83V101H82V100ZM135 100H136V101H135V100ZM152 100H153V101H152V100ZM171 101V100H173L171 101ZM188 100H189V101H188V100ZM91 101H92V102H91V101ZM105 101H106V102H105V101ZM115 101H116V102H115V101ZM157 102L155 101H157V102ZM168 101H169V102H168V101ZM187 101H188V102H187V101ZM209 101H210V102H209V101ZM186 102H187V103H186V102ZM25 103H26V104H25V103ZM104 103H105V104H104V103ZM114 103H115V104H114V103ZM139 103H140V104H139V103ZM209 103H210V104H209V103ZM82 106V104L83 106H82ZM183 104H184V105H183V104ZM26 105H27V106H26V105ZM36 105H37V106H36V105ZM142 105H143V106H142V105ZM181 105H182V106H181V105ZM208 105H209V106H208V105ZM112 106H113V107H112V106ZM144 106H145V107H144V106ZM179 106H180V107H179V106ZM83 107H84V108H83V107ZM146 107H147V108H146V107ZM177 107H178V108H177V107ZM28 108H29V109H28V108ZM101 108H102V109H101V108ZM111 108H112V109H111V108ZM149 108H150V109H149V108ZM84 109H85V110H84V109ZM94 109H95V110H94V109ZM152 109H153V110H152V109ZM171 110L173 109V110H171ZM29 110H30V111H29V110ZM110 110H111V111H110V110ZM215 110H216V111H215V110ZM30 112H31V113H30V112ZM204 112H205V113H204V112ZM214 112H215V113H214V112ZM108 113H109V114H108V113ZM32 115H33V116H32V115ZM107 115H108V116H107V115ZM212 115H213V116H212V115ZM106 116H107V117H106V116ZM105 117H106V118H105V117ZM201 117H202V118H201V117ZM211 117H212V118H211V117ZM35 118H36V119H35V118ZM104 118H105V119H104V118ZM37 119H38V120H37V119ZM101 120L103 119L102 120H101ZM200 119H201V120H200V119ZM210 119H211V120H210V119ZM91 121H92V122H91V121ZM101 121H102V122H101V121ZM208 122H209V123H208V122ZM93 124H94V125H93V124ZM197 124H198V125H197V124ZM207 124H208V125H207V124ZM94 126H95V127H94V126ZM104 126H105V127H104V126ZM206 126H207V127H206V126ZM205 127H206V128H205V127ZM95 128H96V129H95V128ZM105 128H106V129H105V128ZM194 129H195V130H194V129ZM204 129H205V130H204V129ZM97 131H98V132H97V131ZM193 131H194V132H193V131ZM203 131H204V132H203V131ZM98 133H99V134H98V133ZM108 133H109V134H108V133ZM201 134H202V135H201V134ZM99 135H100V136H99V135ZM100 136H101V137H100V136ZM190 136H191V137H190V136ZM200 136H201V137H200V136ZM101 138H102V139H101V138ZM111 138H112V139H111V138ZM199 138H200V139H199V138ZM102 140H103V141H102V140ZM112 140H113V141H112V140ZM187 141H188V142H187V141ZM197 141H198V142H197V141ZM104 143H105V144H104V143ZM186 143H187V144H186V143ZM196 143H197V144H196V143ZM105 145H106V146H105V145ZM115 145H116V146H115V145ZM194 146H195V147H194V146ZM106 147H107V148H106V147ZM183 148H184V149H183V148ZM193 148H194V149H193V148ZM108 150H109V151H108V150ZM118 150H119V151H118V150ZM192 150H193V151H192V150ZM109 152H110V153H109V152ZM119 152H120V153H119V152ZM120 153H121V154H120V153ZM180 153H181V154H180V153ZM190 153H191V154H190V153ZM111 155H112V156H111V155ZM189 155H190V156H189V155ZM112 157H113V158H112V157ZM188 157H189V158H188V157ZM187 158H188V159H187V158ZM185 160H186V161H185V160ZM116 161H117V162H116V161Z" fill="#474747"/>
<path d="M89 10H90V11H89V12H88V13H87V14H86V15H85V16H84V17H83V18H82V19H81V20H80V21H79V22H78V23H77V24H76V25H75V26H74V27H73V28H72V29H71V30H70V31H69V32H68V33H67V34H66V35H65V36H64V37H63V38H62V39H61V40H60V41H59V40H60V39H61V38H62V37H63V36H64V35H65V34H66V33H67V32H68V31H69V30H70V29H71V28H72V27H73V26H74V25H75V24H76V23H77V22H78V21H79V20H80V19H81V18H82V17H83V16H84V15H85V14H86V13H87V12H88V11H89V10Z" fill="#9D9D9D"/>
<path d="M117 43H116V44H117V43Z" fill="#9D9D9D"/>
<path d="M113 47H112V48H113V47Z" fill="#9D9D9D"/>
<path d="M111 50H110V51H111V50Z" fill="#9D9D9D"/>
<path d="M110 52H109V53H110V52Z" fill="#9D9D9D"/>
<path d="M138 55H137V56H138V55Z" fill="#9D9D9D"/>
<path d="M107 57H106V58H107V57Z" fill="#9D9D9D"/>
<path d="M106 59H105V60H106V59Z" fill="#9D9D9D"/>
<path d="M12 61H11V62H12V61Z" fill="#9D9D9D"/>
<path d="M129 61H128V62H129V61Z" fill="#9D9D9D"/>
<path d="M104 62H103V63H104V62Z" fill="#9D9D9D"/>
<path d="M13 63H12V64H13V63Z" fill="#9D9D9D"/>
<path d="M103 64H102V65H103V64Z" fill="#9D9D9D"/>
<path d="M127 64H126V65H127V64Z" fill="#9D9D9D"/>
<path d="M15 66H14V67H15V66Z" fill="#9D9D9D"/>
<path d="M102 66H101V67H102V66Z" fill="#9D9D9D"/>
<path d="M126 66H125V67H126V66Z" fill="#9D9D9D"/>
<path d="M16 68H15V69H16V68Z" fill="#9D9D9D"/>
<path d="M100 69H99V70H100V69Z" fill="#9D9D9D"/>
<path d="M99 71H98V72H99V71Z" fill="#9D9D9D"/>
<path d="M123 71H122V72H123V71Z" fill="#9D9D9D"/>
<path d="M19 73H18V74H19V73Z" fill="#9D9D9D"/>
<path d="M122 73H121V74H122V73Z" fill="#9D9D9D"/>
<path d="M97 74H96V75H97V74Z" fill="#9D9D9D"/>
<path d="M20 75H19V76H20V75Z" fill="#9D9D9D"/>
<path d="M96 76H95V77H96V76Z" fill="#9D9D9D"/>
<path d="M120 76H119V77H120V76Z" fill="#9D9D9D"/>
<path d="M22 78H21V79H22V78Z" fill="#9D9D9D"/>
<path d="M95 78H94V79H95V78Z" fill="#9D9D9D"/>
<path d="M119 78H118V79H119V78Z" fill="#9D9D9D"/>
<path d="M133 79H132V80H133V79Z" fill="#9D9D9D"/>
<path d="M23 80H22V81H23V80Z" fill="#9D9D9D"/>
<path d="M118 80H117V81H118V80Z" fill="#9D9D9D"/>
<path d="M93 81H92V82H93V81Z" fill="#9D9D9D"/>
<path d="M192 81H191V82H192V81Z" fill="#9D9D9D"/>
<path d="M24 82H23V83H24V82Z" fill="#9D9D9D"/>
<path d="M134 82H133V83H134V82Z" fill="#9D9D9D"/>
<path d="M92 83H91V84H92V83Z" fill="#9D9D9D"/>
<path d="M116 83H115V84H116V83Z" fill="#9D9D9D"/>
<path d="M191 83H190V84H191V83Z" fill="#9D9D9D"/>
<path d="M135 84H134V85H135V84Z" fill="#9D9D9D"/>
<path d="M26 85H25V86H26V85Z" fill="#9D9D9D"/>
<path d="M115 85H114V86H115V85Z" fill="#9D9D9D"/>
<path d="M190 85H189V86H190V85Z" fill="#9D9D9D"/>
<path d="M90 86H89V87H90V86Z" fill="#9D9D9D"/>
<path d="M136 86H135V87H136V86Z" fill="#9D9D9D"/>
<path d="M27 87H26V88H27V87Z" fill="#9D9D9D"/>
<path d="M189 87H188V88H189V87Z" fill="#9D9D9D"/>
<path d="M89 88H88V89H89V88Z" fill="#9D9D9D"/>
<path d="M113 88H112V89H113V88Z" fill="#9D9D9D"/>
<path d="M137 89H138V90H139V91H138V90H137V89Z" fill="#9D9D9D"/>
<path d="M29 90H28V91H29V90Z" fill="#9D9D9D"/>
<path d="M88 90H87V91H88V90Z" fill="#9D9D9D"/>
<path d="M112 90H111V91H112V90Z" fill="#9D9D9D"/>
<path d="M30 92H29V93H30V92Z" fill="#9D9D9D"/>
<path d="M111 92H110V93H111V92Z" fill="#9D9D9D"/>
<path d="M184 92H185V93H184V94H183V93H184V92Z" fill="#9D9D9D"/>
<path d="M86 93H85V94H86V93Z" fill="#9D9D9D"/>
<path d="M31 94H30V95H31V94Z" fill="#9D9D9D"/>
<path d="M142 94H143V95H144V96H143V95H142V94Z" fill="#9D9D9D"/>
<path d="M85 95H84V96H85V95Z" fill="#9D9D9D"/>
<path d="M109 95H108V96H109V95Z" fill="#9D9D9D"/>
<path d="M180 96H179V97H180V96Z" fill="#9D9D9D"/>
<path d="M33 97H32V98H33V97Z" fill="#9D9D9D"/>
<path d="M108 97H107V98H108V97Z" fill="#9D9D9D"/>
<path d="M147 97H146V98H147V97Z" fill="#9D9D9D"/>
<path d="M149 98H148V99H149V98Z" fill="#9D9D9D"/>
<path d="M34 99H33V100H34V99Z" fill="#9D9D9D"/>
<path d="M83 99H82V100H83V99Z" fill="#9D9D9D"/>
<path d="M151 99H150V100H151V99Z" fill="#9D9D9D"/>
<path d="M174 99H173V100H174V99Z" fill="#9D9D9D"/>
<path d="M106 100H105V101H106V100Z" fill="#9D9D9D"/>
<path d="M154 100H153V101H154V100Z" fill="#9D9D9D"/>
<path d="M171 100H170V101H171V100Z" fill="#9D9D9D"/>
<path d="M105 102H104V103H105V102Z" fill="#9D9D9D"/>
<path d="M37 104H36V105H37V104Z" fill="#9D9D9D"/>
<path d="M104 104H103V105H104V104Z" fill="#9D9D9D"/>
<path d="M209 104H208V105H209V104Z" fill="#9D9D9D"/>
<path d="M38 106H37V107H38V106Z" fill="#9D9D9D"/>
<path d="M208 106H207V107H208V106Z" fill="#9D9D9D"/>
<path d="M102 107H101V108H102V107Z" fill="#9D9D9D"/>
<path d="M95 108H94V109H95V108Z" fill="#9D9D9D"/>
<path d="M101 109H100V110H101V109Z" fill="#9D9D9D"/>
<path d="M96 110H95V111H96V110Z" fill="#9D9D9D"/>
<path d="M205 111H204V112H205V111Z" fill="#9D9D9D"/>
<path d="M204 113H203V114H204V113Z" fill="#9D9D9D"/>
<path d="M202 116H201V117H202V116Z" fill="#9D9D9D"/>
<path d="M201 118H200V119H201V118Z" fill="#9D9D9D"/>
<path d="M103 122H102V123H103V122Z" fill="#9D9D9D"/>
<path d="M198 123H197V124H198V123Z" fill="#9D9D9D"/>
<path d="M105 125H104V126H105V125Z" fill="#9D9D9D"/>
<path d="M197 125H196V126H197V125Z" fill="#9D9D9D"/>
<path d="M106 127H105V128H106V127Z" fill="#9D9D9D"/>
<path d="M195 128H194V129H195V128Z" fill="#9D9D9D"/>
<path d="M194 130H193V131H194V130Z" fill="#9D9D9D"/>
<path d="M109 132H108V133H109V132Z" fill="#9D9D9D"/>
<path d="M193 132H192V133H193V132Z" fill="#9D9D9D"/>
<path d="M110 134H109V135H110V134Z" fill="#9D9D9D"/>
<path d="M191 135H190V136H191V135Z" fill="#9D9D9D"/>
<path d="M112 137H111V138H112V137Z" fill="#9D9D9D"/>
<path d="M190 137H189V138H190V137Z" fill="#9D9D9D"/>
<path d="M113 139H112V140H113V139Z" fill="#9D9D9D"/>
<path d="M188 140H187V141H188V140Z" fill="#9D9D9D"/>
<path d="M114 141H113V142H114V141Z" fill="#9D9D9D"/>
<path d="M187 142H186V143H187V142Z" fill="#9D9D9D"/>
<path d="M116 144H115V145H116V144Z" fill="#9D9D9D"/>
<path d="M186 144H185V145H186V144Z" fill="#9D9D9D"/>
<path d="M117 146H116V147H117V146Z" fill="#9D9D9D"/>
<path d="M184 147H183V148H184V147Z" fill="#9D9D9D"/>
<path d="M119 149H118V150H119V149Z" fill="#9D9D9D"/>
<path d="M183 149H182V150H183V149Z" fill="#9D9D9D"/>
<path d="M120 151H119V152H120V151Z" fill="#9D9D9D"/>
<path d="M24 39H25V40H26V41H27V42H28V43H29V44H30V45H31V46H32V47H33V48H34V49H35V50H36V51H37V52H38V53H39V54H40V55H41V56H42V57H41V56H40V55H39V54H38V53H37V52H36V51H35V50H34V49H33V48H32V47H31V46H30V45H29V44H28V43H27V42H26V41H25V40H24V39Z" fill="#474747"/>
<path d="M115 44H116V45H115V46H114V47H113V46H114V45H115V44Z" fill="#474747"/>
<path d="M112 49H111V50H112V49Z" fill="#474747"/>
<path d="M47 53H48V54H47V55H46V56H45V57H44V56H45V55H46V54H47V53Z" fill="#474747"/>
<path d="M109 54H108V55H109V54Z" fill="#474747"/>
<path d="M137 54H136V55H137V54Z" fill="#474747"/>
<path d="M108 56H107V57H108V56Z" fill="#474747"/>
<path d="M105 61H104V62H105V61Z" fill="#474747"/>
<path d="M128 63H127V64H128V63Z" fill="#474747"/>
<path d="M14 65H13V66H14V65Z" fill="#474747"/>
<path d="M101 68H100V69H101V68Z" fill="#474747"/>
<path d="M125 68H124V69H125V68Z" fill="#474747"/>
<path d="M17 70H16V71H17V70Z" fill="#474747"/>
<path d="M124 70H123V71H124V70Z" fill="#474747"/>
<path d="M18 72H17V73H18V72Z" fill="#474747"/>
<path d="M98 73H97V74H98V73Z" fill="#474747"/>
<path d="M121 75H120V76H121V75Z" fill="#474747"/>
<path d="M21 77H20V78H21V77Z" fill="#474747"/>
<path d="M94 80H93V81H94V80Z" fill="#474747"/>
<path d="M117 82H116V83H117V82Z" fill="#474747"/>
<path d="M25 84H24V85H25V84Z" fill="#474747"/>
<path d="M91 85H90V86H91V85Z" fill="#474747"/>
<path d="M114 87H113V88H114V87Z" fill="#474747"/>
<path d="M137 88H136V89H137V88Z" fill="#474747"/>
<path d="M28 89H27V90H28V89Z" fill="#474747"/>
<path d="M187 89H188V90H187V91H186V92H185V91H186V90H187V89Z" fill="#474747"/>
<path d="M87 92H86V93H87V92Z" fill="#474747"/>
<path d="M110 94H109V95H110V94Z" fill="#474747"/>
<path d="M182 94H183V95H182V96H181V95H182V94Z" fill="#474747"/>
<path d="M32 96H31V97H32V96Z" fill="#474747"/>
<path d="M145 96H144V97H145V96Z" fill="#474747"/>
<path d="M84 97H83V98H84V97Z" fill="#474747"/>
<path d="M179 97H178V98H179V97Z" fill="#474747"/>
<path d="M177 98H176V99H177V98Z" fill="#474747"/>
<path d="M107 99H106V100H107V99Z" fill="#474747"/>
<path d="M35 101H34V102H35V101Z" fill="#474747"/>
<path d="M36 103H35V104H36V103Z" fill="#474747"/>
<path d="M93 105H92V106H93V105Z" fill="#474747"/>
<path d="M103 106H102V107H103V106Z" fill="#474747"/>
<path d="M94 107H93V108H94V107Z" fill="#474747"/>
<path d="M39 108H38V109H39V108Z" fill="#474747"/>
<path d="M207 108H206V109H207V108Z" fill="#474747"/>
<path d="M40 110H39V111H40V110Z" fill="#474747"/>
<path d="M206 110H205V111H206V110Z" fill="#474747"/>
<path d="M203 115H202V116H203V115Z" fill="#474747"/>
<path d="M200 120H199V121H200V120Z" fill="#474747"/>
<path d="M199 122H198V123H199V122Z" fill="#474747"/>
<path d="M104 124H103V125H104V124Z" fill="#474747"/>
<path d="M196 127H195V128H196V127Z" fill="#474747"/>
<path d="M107 129H106V130H107V129Z" fill="#474747"/>
<path d="M108 131H107V132H108V131Z" fill="#474747"/>
<path d="M192 134H191V135H192V134Z" fill="#474747"/>
<path d="M111 136H110V137H111V136Z" fill="#474747"/>
<path d="M189 139H188V140H189V139Z" fill="#474747"/>
<path d="M115 143H114V144H115V143Z" fill="#474747"/>
<path d="M185 146H184V147H185V146Z" fill="#474747"/>
<path d="M118 148H117V149H118V148Z" fill="#474747"/>
<path d="M182 151H181V152H182V151Z" fill="#474747"/>
</svg>
