<svg width="295" height="284" viewBox="0 0 295 284" fill="none" xmlns="http://www.w3.org/2000/svg">
<path d="M69.55 65.9C106.05 32.1 137.55 3.5 139.55 2.3C142.15 0.6 144.65 0 148.65 0C152.35 0 155.15 0.6 157.45 2C159.15 3.1 168.85 11.8 178.95 21.2C188.95 30.7 218.55 58.6 244.65 83.2C270.75 107.7 292.75 129 293.45 130.4C294.05 131.8 294.65 134 294.65 135.2C294.65 136.5 293.85 138.9 292.85 140.5C291.85 142.1 289.35 144.3 287.35 145.2C285.35 146.2 279.85 147.3 266.65 148.5V211.2C266.65 262.3 266.35 274.5 265.25 276.7C264.55 278.3 262.65 280.4 261.05 281.5C258.25 283.4 256.55 283.5 182.15 283.5L181.65 195.5L176.45 190.5L150.35 190.2C135.95 190 122.85 190.1 121.15 190.4C119.55 190.7 117.05 191.8 113.15 194.8L112.15 283.5H74.65C40.55 283.5 36.85 283.3 34.35 281.7C32.85 280.8 30.75 278.5 29.65 276.8C27.75 273.6 27.65 271.7 27.65 148.5L19.15 147.7C14.45 147.3 9.45 146.4 7.95 145.6C6.35 144.8 4.15 143.1 2.95 141.8C1.75 140.6 0.45 138.1 0.15 136.5C-0.25 134.5 0.15 132.4 1.35 130.4C2.35 128.6 33.05 99.6 69.55 65.9Z" fill="#737373"/>
</svg>
