<svg width="43" height="43" viewBox="0 0 43 43" fill="none" xmlns="http://www.w3.org/2000/svg">
<path d="M39 19V26H40V23L39 19Z" fill="#878686"/>
<path d="M3 25H2V26H3V25Z" fill="#878686"/>
<path d="M21 39V40H23V39H21Z" fill="#878686"/>
<path d="M24 39V40H26V39H24Z" fill="#878686"/>
<path d="M4 0L3 1L2 2L1 3L0 4V23L2 25H3L4 23V19V18V6V5L5 4H6H18H19H23L36 3L37 4L38 5L39 6V19L40 23H41V17V4V3L40 2L39 1H38L37 0H4Z" fill="#888787"/>
<path d="M2 37V26H3V37H4V38H3V37H2V38V39H3V40H2V39H1V38L2 37Z" fill="#888787"/>
<path d="M39 26V36V37L40 26H39Z" fill="#888787"/>
<path d="M38 38H39V39H38V40H40V39V38H41V39V40H40V41H39H38V40H28H26V39H33H37H38V38Z" fill="#888787"/>
<path d="M5 39L17 40H21V39H19H8H6H5Z" fill="#888787"/>
<path d="M24 39H23V40H24V39Z" fill="#888787"/>
<path d="M41 2H40V3H41V2Z" fill="#8A8989"/>
<path d="M36 3L23 4H36V3Z" fill="#8A8989"/>
<path d="M0 38V23L2 25V26V37H3V26V25L4 23V37H3V38H2V37L1 38H0Z" fill="#8A8989"/>
<path d="M40 23V26L39 37V38H40H41V23H40Z" fill="#8A8989"/>
<path d="M1 39H2V40H3V39H5L17 40L8 42H4V41L3 40V41H2V40H1V39Z" fill="#8A8989"/>
<path d="M38 40V39H39H40V40H38V41H28V40H38Z" fill="#8A8989"/>
<path d="M38 0H37V1H38V0Z" fill="#8D8C8C"/>
<path d="M40 1H39V2H40V1Z" fill="#8D8C8C"/>
<path d="M41 4V17H42V4H41Z" fill="#8D8C8C"/>
<path d="M2 38V39H3H5H6V38H5H4H3H2Z" fill="#8D8C8C"/>
<path d="M40 38H39V39H40V38Z" fill="#8D8C8C"/>
<path d="M17 40L8 42H18L28 41V40H26H24H23H21H17Z" fill="#8D8C8C"/>
<path d="M41 17V23V38V39H42V17H41Z" fill="#8F8E8E"/>
<path d="M38 37H39V38H38V39H37V38H38V37Z" fill="#8F8E8E"/>
<path d="M6 38V39H8V38H6Z" fill="#8F8E8E"/>
<path d="M4 41H3V42H4V41Z" fill="#8F8E8E"/>
<path d="M28 41L18 42H39V41H38H28Z" fill="#8F8E8E"/>
<path d="M8 38V39H19V38H8Z" fill="#949393"/>
<path d="M33 38V39H37V38H33Z" fill="#949393"/>
<path d="M39 36H38V37H39V36Z" fill="#989797"/>
<path d="M19 38V39H21H23H24H26H33V38H19Z" fill="#989797"/>
<path d="M38 6V19H39V6H38Z" fill="#A1A1A1"/>
<path d="M38 26V36H39V26H38Z" fill="#A1A1A1"/>
<path d="M38 19V26H39V19H38Z" fill="#A4A4A4"/>
<path d="M39 0H38V1H39V0Z" fill="#B2B0B0"/>
<path d="M1 38H0V39H1V38Z" fill="#B2B0B0"/>
<path d="M41 40H40V41H41V40Z" fill="#B2B0B0"/>
<path d="M1 3H0V4H1V3Z" fill="#CACACA"/>
<path d="M4 0H3V1H4V0Z" fill="#CDD4D4"/>
<path d="M42 39H41V40H42V39Z" fill="#F5F3F3"/>
<path d="M40 41H39V42H40V41Z" fill="#F5F3F3"/>
<path d="M5 4H6V5H5V6H4V5H5V4Z" fill="#FBFBFB"/>
<path fill-rule="evenodd" clip-rule="evenodd" d="M40 1L41 2V3L42 4V39L39 42H4L1 39H0V43H43V0H39V1H40ZM1 3L3 1V0H0V3H1ZM4 6V37L5 38H38V5L37 4H6L4 6Z" fill="#FEFEFE"/>
<path d="M21 11H20V12H21V11Z" fill="#878686"/>
<path d="M19 15V18H20L19 15Z" fill="#878686"/>
<path d="M23 15L22 18H23V17V15Z" fill="#878686"/>
<path d="M12 20V19H17H18H19L12 20L19 23H20V24L21 31H20H19V30V24V23H18H17H13H12H11V22V20H12Z" fill="#878686"/>
<path d="M23 23L25 22L23 19H24H25H30H31V20V22V23H30H29H24H23V24V26V30V31H22V24V23H23Z" fill="#878686"/>
<path d="M20 12L21 11H22H23V12V13V15L22 18H23V19L25 22L23 23H22H20H19L12 20L19 19V18H20L19 15V13V12H20Z" fill="#888787"/>
<path d="M4 40H3V41H4V40Z" fill="#888787"/>
<path d="M2 1H3V2H2V3H1V2H2V1Z" fill="#8A8989"/>
<path d="M19 3H18V4H19V3Z" fill="#8A8989"/>
<path d="M20 11H19V12H20V11Z" fill="#8A8989"/>
<path d="M4 18H3V19H4V18Z" fill="#8A8989"/>
<path d="M12 19H11V20H12V19Z" fill="#8A8989"/>
<path d="M20 24L21 31H22V24H20Z" fill="#8A8989"/>
<path d="M37 3H36V4H37V3Z" fill="#8D8C8C"/>
<path d="M20 23V24H22V23H20Z" fill="#8D8C8C"/>
<path d="M20 31V32H22V31H21H20Z" fill="#8D8C8C"/>
<path d="M42 3H41V4H42V3Z" fill="#8F8E8E"/>
<path d="M39 5H38V6H39V5Z" fill="#8F8E8E"/>
<path d="M24 18H23V19H24V18Z" fill="#8F8E8E"/>
<path d="M31 20V22H32V20H31Z" fill="#8F8E8E"/>
<path d="M19 23H18V24H19V23Z" fill="#8F8E8E"/>
<path d="M13 23V24H17V23H13Z" fill="#949393"/>
<path d="M24 23H23V24H24V23Z" fill="#949393"/>
<path d="M18 23H17V24H18V23Z" fill="#989797"/>
<path d="M24 23V24H29V23H24Z" fill="#989797"/>
<path d="M30 23H29V24H30V23Z" fill="#A4A4A4"/>
<path d="M23 13V15V17H24V13H23Z" fill="#ABABAB"/>
<path d="M23 26V30H24V26H23Z" fill="#ABABAB"/>
<path d="M23 24V26H24V24H23Z" fill="#B2B0B0"/>
<path d="M24 12H23V13H24V12Z" fill="#B6B7B7"/>
<path d="M24 17H23V18H24V17Z" fill="#B6B7B7"/>
<path d="M32 22H31V23H32V22Z" fill="#B6B7B7"/>
<path d="M13 23H12V24H13V23Z" fill="#B6B7B7"/>
<path d="M23 30H24V31H23V32H22V31H23V30Z" fill="#B6B7B7"/>
<path d="M5 4H4V5H5V4Z" fill="#C0BFBF"/>
<path d="M38 4H37V5H38V4Z" fill="#C0BFBF"/>
<path d="M20 10V11H21H22V10H20Z" fill="#C0BFBF"/>
<path d="M19 18H18V19H19V18Z" fill="#C0BFBF"/>
<path d="M25 18V19H30V18H25Z" fill="#C0BFBF"/>
<path d="M32 19H31V20H32V19Z" fill="#C0BFBF"/>
<path d="M10 20V22H11V20H10Z" fill="#C0BFBF"/>
<path d="M31 23H30V24H31V23Z" fill="#C0BFBF"/>
<path d="M23 10H22V11H23V10Z" fill="#CACACA"/>
<path d="M18 13V18H19V15V13H18Z" fill="#CACACA"/>
<path d="M12 18V19H17V18H12Z" fill="#CACACA"/>
<path d="M25 18H24V19H25V18Z" fill="#CACACA"/>
<path d="M18 24V30H19V24H18Z" fill="#CACACA"/>
<path d="M20 31H19V32H20V31Z" fill="#CACACA"/>
<path d="M19 12H18V13H19V12Z" fill="#CDD4D4"/>
<path d="M5 37H4V38H5V37Z" fill="#CDD4D4"/>
<path d="M24 11H23V12H24V11Z" fill="#E1E1E1"/>
<path d="M18 18H17V19H18V18Z" fill="#E1E1E1"/>
<path d="M12 23H11V24H12V23Z" fill="#E1E1E1"/>
<path d="M41 1H40V2H41V1Z" fill="#F5F3F3"/>
<path d="M19 10H20V11H19V12H18V11H19V10Z" fill="#FBFBFB"/>
<path d="M11 18H12V19H11V20H10V19H11V18Z" fill="#FBFBFB"/>
<path d="M31 18H30V19H31V18Z" fill="#FBFBFB"/>
<path d="M11 22H10V23H11V22Z" fill="#FBFBFB"/>
<path d="M19 30H18V31H19V30Z" fill="#FBFBFB"/>
</svg>
